<svg width="50" height="50" viewBox="0 0 50 50" fill="none" xmlns="http://www.w3.org/2000/svg">
<path d="M48.3027 24.3672C48.2344 24.2129 46.5801 20.543 42.9023 16.8652C38.0019 11.9648 31.8125 9.375 25 9.375C18.1875 9.375 11.998 11.9648 7.09764 16.8652C3.4199 20.543 1.75779 24.2188 1.69725 24.3672C1.60841 24.567 1.5625 24.7833 1.5625 25.002C1.5625 25.2206 1.60841 25.4369 1.69725 25.6367C1.76561 25.791 3.4199 29.459 7.09764 33.1367C11.998 38.0352 18.1875 40.625 25 40.625C31.8125 40.625 38.0019 38.0352 42.9023 33.1367C46.5801 29.459 48.2344 25.791 48.3027 25.6367C48.3916 25.4369 48.4375 25.2206 48.4375 25.002C48.4375 24.7833 48.3916 24.567 48.3027 24.3672ZM25 37.5C18.9883 37.5 13.7363 35.3145 9.38865 31.0059C7.60476 29.2318 6.08707 27.2089 4.88279 25C6.08674 22.7909 7.60447 20.7679 9.38865 18.9941C13.7363 14.6855 18.9883 12.5 25 12.5C31.0117 12.5 36.2637 14.6855 40.6113 18.9941C42.3987 20.7675 43.9197 22.7905 45.1269 25C43.7187 27.6289 37.584 37.5 25 37.5ZM25 15.625C23.1458 15.625 21.3332 16.1748 19.7915 17.205C18.2498 18.2351 17.0482 19.6993 16.3386 21.4123C15.629 23.1254 15.4434 25.0104 15.8051 26.829C16.1669 28.6475 17.0597 30.318 18.3709 31.6291C19.682 32.9402 21.3524 33.8331 23.171 34.1949C24.9896 34.5566 26.8746 34.3709 28.5876 33.6614C30.3007 32.9518 31.7649 31.7502 32.795 30.2085C33.8251 28.6668 34.375 26.8542 34.375 25C34.3724 22.5144 33.3838 20.1313 31.6263 18.3737C29.8687 16.6161 27.4856 15.6276 25 15.625ZM25 31.25C23.7638 31.25 22.5555 30.8834 21.5277 30.1967C20.4999 29.5099 19.6988 28.5338 19.2257 27.3918C18.7527 26.2497 18.6289 24.9931 18.8701 23.7807C19.1112 22.5683 19.7065 21.4547 20.5806 20.5806C21.4546 19.7065 22.5683 19.1112 23.7807 18.8701C24.993 18.6289 26.2497 18.7527 27.3918 19.2258C28.5338 19.6988 29.5099 20.4999 30.1967 21.5277C30.8834 22.5555 31.25 23.7639 31.25 25C31.25 26.6576 30.5915 28.2473 29.4194 29.4194C28.2473 30.5915 26.6576 31.25 25 31.25Z" fill="white"/>
</svg>
