<svg width="30" height="52" viewBox="0 0 30 52" fill="none" xmlns="http://www.w3.org/2000/svg">
<path d="M18.75 39C18.75 40.5476 18.2031 41.8631 17.1094 42.9464C16.0156 44.0298 14.6875 44.5714 13.125 44.5714C11.5625 44.5714 10.2344 44.0298 9.14062 42.9464C8.04688 41.8631 7.5 40.5476 7.5 39C7.5 37.8393 7.8418 36.7753 8.52539 35.808C9.20898 34.8408 10.1172 34.154 11.25 33.7478V22.2857H15V33.7478C16.1328 34.154 17.041 34.8408 17.7246 35.808C18.4082 36.7753 18.75 37.8393 18.75 39ZM22.5 39C22.5 37.5104 22.168 36.1176 21.5039 34.8214C20.8398 33.5253 19.9219 32.442 18.75 31.5714V9.28571C18.75 7.7381 18.2031 6.42262 17.1094 5.33929C16.0156 4.25595 14.6875 3.71429 13.125 3.71429C11.5625 3.71429 10.2344 4.25595 9.14062 5.33929C8.04688 6.42262 7.5 7.7381 7.5 9.28571V31.5714C6.32812 32.442 5.41016 33.5253 4.74609 34.8214C4.08203 36.1176 3.75 37.5104 3.75 39C3.75 41.5729 4.66309 43.7638 6.48926 45.5725C8.31543 47.3813 10.5273 48.2857 13.125 48.2857C15.7227 48.2857 17.9346 47.3813 19.7607 45.5725C21.5869 43.7638 22.5 41.5729 22.5 39ZM26.25 39C26.25 42.5789 24.9658 45.6403 22.3975 48.1842C19.8291 50.7281 16.7383 52 13.125 52C9.51172 52 6.4209 50.7281 3.85254 48.1842C1.28418 45.6403 0 42.5789 0 39C0 35.4792 1.25 32.4516 3.75 29.9174V9.28571C3.75 6.7128 4.66309 4.52195 6.48926 2.71317C8.31543 0.90439 10.5273 0 13.125 0C15.7227 0 17.9346 0.90439 19.7607 2.71317C21.5869 4.52195 22.5 6.7128 22.5 9.28571V29.9174C25 32.4516 26.25 35.4792 26.25 39ZM30 22.2857V26H24.375V22.2857H30ZM30 14.8571V18.5714H24.375V14.8571H30ZM30 7.42857V11.1429H24.375V7.42857H30Z" fill="white"/>
</svg>
