<svg width="25" height="25" viewBox="0 0 25 25" fill="none" xmlns="http://www.w3.org/2000/svg">
<path fill-rule="evenodd" clip-rule="evenodd" d="M12.8 21.7797L12.8021 21.7786L12.8073 21.775L12.8229 21.763L12.8844 21.7187C12.9365 21.6802 13.0125 21.624 13.1083 21.55C13.3 21.4031 13.5719 21.187 13.8964 20.9094C14.7481 20.1813 15.5446 19.391 16.2792 18.5448C18.0021 16.5521 19.7917 13.7078 19.7917 10.4562C19.7917 8.51354 19.024 6.64896 17.6573 5.27396C16.9818 4.59343 16.1784 4.05322 15.2933 3.68441C14.4082 3.31561 13.4589 3.12549 12.5 3.125C11.5412 3.12542 10.5919 3.31546 9.7068 3.68417C8.8217 4.05289 8.01825 4.59301 7.34271 5.27344C5.9747 6.65158 5.20741 8.51493 5.20833 10.4568C5.20833 13.7078 6.99792 16.5521 8.72083 18.5448C9.4554 19.391 10.2519 20.1813 11.1036 20.9094C11.4286 21.187 11.7 21.4031 11.8917 21.55C11.9857 21.6224 12.0806 21.6936 12.1766 21.7635L12.1932 21.775L12.1979 21.7786L12.2 21.7797C12.3797 21.9062 12.6203 21.9062 12.8 21.7797ZM15.1042 10.4167C15.1042 11.1073 14.8298 11.7697 14.3414 12.2581C13.853 12.7465 13.1907 13.0208 12.5 13.0208C11.8093 13.0208 11.147 12.7465 10.6586 12.2581C10.1702 11.7697 9.89583 11.1073 9.89583 10.4167C9.89583 9.726 10.1702 9.06362 10.6586 8.57524C11.147 8.08687 11.8093 7.8125 12.5 7.8125C13.1907 7.8125 13.853 8.08687 14.3414 8.57524C14.8298 9.06362 15.1042 9.726 15.1042 10.4167Z" fill="white"/>
</svg>
