<svg width="35" height="40" viewBox="0 0 35 40" fill="none" xmlns="http://www.w3.org/2000/svg">
<path d="M22.9688 31.8471C23.8802 31.8471 24.6553 31.5496 25.2941 30.9544C25.9328 30.3592 26.2515 29.6377 26.25 28.7898C26.25 27.9406 25.9306 27.2183 25.2919 26.6232C24.6531 26.028 23.8787 25.7311 22.9688 25.7325C22.0573 25.7325 21.2822 26.0301 20.6434 26.6252C20.0047 27.2204 19.686 27.9419 19.6875 28.7898C19.6875 29.6391 20.0069 30.3613 20.6456 30.9564C21.2844 31.5516 22.0588 31.8485 22.9688 31.8471ZM10.3906 30.3185C10.8281 30.7261 11.3385 30.9299 11.9219 30.9299C12.5052 30.9299 13.0156 30.7261 13.4531 30.3185L24.6094 19.9236C25.0469 19.5159 25.2656 19.0403 25.2656 18.4968C25.2656 17.9533 25.0469 17.4777 24.6094 17.0701C24.1719 16.6624 23.652 16.4586 23.0497 16.4586C22.4474 16.4586 21.9282 16.6624 21.4922 17.0701L10.3906 27.414C9.95313 27.8217 9.73438 28.3061 9.73438 28.8673C9.73438 29.4285 9.95313 29.9122 10.3906 30.3185ZM12.0313 21.6561C12.9427 21.6561 13.7178 21.3585 14.3566 20.7633C14.9953 20.1682 15.314 19.4466 15.3125 18.5987C15.3125 17.7495 14.9931 17.0273 14.3544 16.4321C13.7156 15.8369 12.9413 15.54 12.0313 15.5414C11.1198 15.5414 10.3447 15.839 9.70594 16.4341C9.06719 17.0293 8.74854 17.7508 8.75 18.5987C8.75 19.448 9.06938 20.1702 9.70813 20.7654C10.3469 21.3605 11.1213 21.6574 12.0313 21.6561ZM17.5 40C12.8698 40 8.79521 38.4972 5.27625 35.4915C1.75729 32.4858 -0.00145743 28.4175 9.06172e-07 23.2866C9.06172e-07 20.0594 1.3125 16.5605 3.9375 12.7898C6.5625 9.01911 10.5365 4.94268 15.8594 0.56051C16.0781 0.390658 16.3333 0.254777 16.625 0.152866C16.9167 0.0509555 17.2083 0 17.5 0C17.7917 0 18.0833 0.0509555 18.375 0.152866C18.6667 0.254777 18.9219 0.390658 19.1406 0.56051C24.4635 4.94268 28.4375 9.01911 31.0625 12.7898C33.6875 16.5605 35 20.0594 35 23.2866C35 28.4161 33.2405 32.4844 29.7216 35.4915C26.2026 38.4985 22.1287 40.0014 17.5 40ZM17.5 35.9236C21.1823 35.9236 24.2907 34.7516 26.8253 32.4076C29.3599 30.0637 30.6265 27.0234 30.625 23.2866C30.625 20.8747 29.5495 18.1143 27.3984 15.0054C25.2474 11.8964 21.9479 8.44026 17.5 4.63694C13.0521 8.44161 9.75261 11.8984 7.60156 15.0074C5.45052 18.1163 4.375 20.8761 4.375 23.2866C4.375 27.0234 5.64229 30.0637 8.17688 32.4076C10.7115 34.7516 13.8192 35.9236 17.5 35.9236Z" fill="white"/>
</svg>
