<svg width="43" height="35" viewBox="0 0 43 35" fill="none" xmlns="http://www.w3.org/2000/svg">
<path d="M0.00232492 5.83397C0.00205844 5.50559 0.0685608 5.18037 0.198033 4.8769C0.327505 4.57343 0.51741 4.29765 0.756899 4.06532C1.72432 3.20087 2.81998 2.48182 4.00737 1.93211C6.77848 0.632155 9.82243 -0.0287994 12.901 0.000962299C17.121 0.000962299 20.2103 1.9946 22.9319 3.75076C25.3504 5.31317 27.4464 6.66726 30.0993 6.66726C35.7102 6.66726 38.5006 4.15282 38.6167 4.04657C38.8525 3.81698 39.1334 3.6356 39.4429 3.51322C39.7523 3.39083 40.084 3.32993 40.4182 3.33411C40.9288 3.33372 41.4279 3.48013 41.8525 3.75479C42.2771 4.02945 42.6081 4.42002 42.8035 4.87705C42.9989 5.33408 43.05 5.83703 42.9503 6.32221C42.8506 6.8074 42.6046 7.25301 42.2434 7.60263C41.276 8.46707 40.1803 9.18613 38.9929 9.73584C36.2218 11.0358 33.1779 11.6967 30.0993 11.667C25.8793 11.667 22.79 9.67335 20.0684 7.91719C17.6499 6.35478 15.5538 5.00069 12.901 5.00069C7.29009 5.00069 4.51687 7.50055 4.40723 7.60263C4.04644 7.95264 3.58659 8.19104 3.0859 8.28766C2.58522 8.38428 2.0662 8.33477 1.59456 8.1454C1.12293 7.95603 0.71988 7.63531 0.436442 7.22385C0.153005 6.81239 0.00192316 6.32869 0.00232492 5.83397ZM40.4182 26.6662C40.084 26.662 39.7523 26.7229 39.4429 26.8453C39.1334 26.9677 38.8525 27.149 38.6167 27.3786C38.5006 27.4849 35.7102 29.9993 30.0993 29.9993C27.44 29.9993 25.3504 28.6494 22.9319 27.0828C20.2081 25.3225 17.1275 23.333 12.901 23.333C9.82243 23.3032 6.77848 23.9642 4.00737 25.2642C2.81998 25.8139 1.72432 26.5329 0.756899 27.3974C0.272264 27.867 -7.22161e-09 28.504 0 29.1681C7.22161e-09 29.8323 0.272264 30.4692 0.756899 30.9388C1.24153 31.4085 1.89884 31.6723 2.58421 31.6723C3.26959 31.6723 3.92689 31.4085 4.41153 30.9388C4.51687 30.8326 7.29009 28.3327 12.901 28.3327C15.5603 28.3327 17.6499 29.6827 20.0684 31.2492C22.7922 33.0096 25.8728 34.999 30.0993 34.999C33.1779 35.0288 36.2218 34.3678 38.9929 33.0679C40.1803 32.5182 41.276 31.7991 42.2434 30.9347C42.6046 30.5851 42.8506 30.1394 42.9503 29.6543C43.05 29.1691 42.9989 28.6661 42.8035 28.2091C42.6081 27.7521 42.2771 27.3615 41.8525 27.0868C41.4279 26.8122 40.9288 26.6658 40.4182 26.6662ZM40.4182 15.0001C40.084 14.9959 39.7523 15.0569 39.4429 15.1792C39.1334 15.3016 38.8525 15.483 38.6167 15.7126C38.5006 15.8188 35.7102 18.3333 30.0993 18.3333C27.44 18.3333 25.3504 16.9834 22.9319 15.4168C20.2081 13.6565 17.1275 11.667 12.901 11.667C9.82243 11.6372 6.77848 12.2982 4.00737 13.5981C2.81998 14.1478 1.72432 14.8669 0.756899 15.7313C0.272264 16.201 -7.22161e-09 16.8379 0 17.5021C7.22161e-09 18.1662 0.272264 18.8032 0.756899 19.2728C1.24153 19.7424 1.89884 20.0063 2.58421 20.0063C3.26959 20.0063 3.92689 19.7424 4.41153 19.2728C4.51687 19.1666 7.29009 16.6667 12.901 16.6667C15.5603 16.6667 17.6499 18.0166 20.0684 19.5832C22.7922 21.3435 25.8728 23.333 30.0993 23.333C33.1779 23.3628 36.2218 22.7018 38.9929 21.4019C40.1803 20.8522 41.276 20.1331 42.2434 19.2687C42.6046 18.919 42.8506 18.4734 42.9503 17.9882C43.05 17.5031 42.9989 17.0001 42.8035 16.5431C42.6081 16.086 42.2771 15.6955 41.8525 15.4208C41.4279 15.1461 40.9288 14.9997 40.4182 15.0001Z" fill="white"/>
</svg>
