<svg width="46" height="46" viewBox="0 0 46 46" fill="none" xmlns="http://www.w3.org/2000/svg">
<path d="M42.4727 25.0484C42.1961 24.7713 41.8493 24.5746 41.4694 24.4797C41.0895 24.3847 40.6909 24.395 40.3165 24.5094C37.7004 25.2991 34.9192 25.3645 32.2689 24.6985C29.6187 24.0325 27.1987 22.6601 25.2668 20.7274C23.3349 18.7948 21.9634 16.3743 21.2984 13.7238C20.6334 11.0733 20.6999 8.29206 21.4906 5.67632C21.606 5.30168 21.617 4.90268 21.5226 4.52222C21.4281 4.14177 21.2317 3.79427 20.9545 3.51708C20.6773 3.23989 20.3298 3.04351 19.9494 2.94906C19.5689 2.8546 19.1699 2.86565 18.7953 2.98101C14.8608 4.1903 11.4081 6.6099 8.92865 9.89538C6.76037 12.7774 5.4381 16.2066 5.11022 19.7982C4.78234 23.3899 5.46181 27.0018 7.07241 30.2288C8.683 33.4558 11.161 36.1701 14.2283 38.0671C17.2956 39.9642 20.8309 40.969 24.4375 40.9687C28.6482 40.9811 32.7467 39.612 36.1046 37.0713C39.3883 34.5894 41.8054 31.1347 43.0118 27.1993C43.1251 26.8256 43.1348 26.4281 43.0399 26.0493C42.945 25.6704 42.7489 25.3245 42.4727 25.0484ZM33.5099 33.6267C30.6035 35.8147 27.0046 36.8794 23.3755 36.6247C19.7465 36.3701 16.3315 34.8133 13.7591 32.2409C11.1866 29.6685 9.62987 26.2535 9.37524 22.6245C9.1206 18.9954 10.1853 15.3965 12.3733 12.4901C13.5246 10.9672 14.9514 9.67379 16.5797 8.6771C16.5474 9.1371 16.5312 9.5989 16.5312 10.0625C16.5369 15.2076 18.5834 20.1403 22.2215 23.7785C25.8596 27.4166 30.7924 29.463 35.9375 29.4687C36.4011 29.4687 36.8629 29.4526 37.3229 29.4202C36.3267 31.0489 35.0332 32.4758 33.5099 33.6267Z" fill="white"/>
</svg>
