<svg width="46" height="46" viewBox="0 0 46 46" fill="none" xmlns="http://www.w3.org/2000/svg">
<g clip-path="url(#clip0_7_115)">
<path d="M20.8438 5.75V2.875C20.8438 2.30313 21.0709 1.75468 21.4753 1.3503C21.8797 0.945926 22.4281 0.71875 23 0.71875C23.5719 0.71875 24.1203 0.945926 24.5247 1.3503C24.9291 1.75468 25.1562 2.30313 25.1562 2.875V5.75C25.1562 6.32187 24.9291 6.87032 24.5247 7.2747C24.1203 7.67907 23.5719 7.90625 23 7.90625C22.4281 7.90625 21.8797 7.67907 21.4753 7.2747C21.0709 6.87032 20.8438 6.32187 20.8438 5.75ZM35.2188 23C35.2188 25.4166 34.5021 27.779 33.1595 29.7884C31.8169 31.7977 29.9086 33.3638 27.6759 34.2887C25.4432 35.2135 22.9864 35.4554 20.6162 34.984C18.246 34.5125 16.0689 33.3488 14.36 31.64C12.6512 29.9311 11.4875 27.754 11.016 25.3838C10.5446 23.0136 10.7865 20.5568 11.7113 18.3241C12.6362 16.0914 14.2023 14.1831 16.2116 12.8405C18.221 11.4979 20.5834 10.7813 23 10.7812C26.2396 10.7846 29.3455 12.073 31.6363 14.3637C33.927 16.6545 35.2154 19.7604 35.2188 23ZM30.9062 23C30.9062 21.4363 30.4426 19.9077 29.5738 18.6075C28.7051 17.3073 27.4703 16.294 26.0256 15.6956C24.5809 15.0972 22.9912 14.9406 21.4576 15.2457C19.9239 15.5507 18.5151 16.3037 17.4094 17.4094C16.3037 18.5151 15.5507 19.9239 15.2457 21.4576C14.9406 22.9912 15.0972 24.5809 15.6956 26.0256C16.294 27.4703 17.3073 28.7051 18.6075 29.5738C19.9077 30.4426 21.4363 30.9062 23 30.9062C25.0961 30.9039 27.1057 30.0701 28.5879 28.5879C30.0701 27.1057 30.9039 25.0961 30.9062 23ZM9.2557 12.3068C9.45628 12.5074 9.69439 12.6665 9.95645 12.775C10.2185 12.8836 10.4994 12.9394 10.783 12.9394C11.0667 12.9394 11.3476 12.8836 11.6096 12.775C11.8717 12.6665 12.1098 12.5074 12.3104 12.3068C12.511 12.1062 12.6701 11.8681 12.7786 11.606C12.8872 11.344 12.943 11.0631 12.943 10.7795C12.943 10.4958 12.8872 10.2149 12.7786 9.95286C12.6701 9.6908 12.511 9.45268 12.3104 9.25211L10.1541 7.09586C9.74906 6.69078 9.19966 6.46321 8.6268 6.46321C8.05393 6.46321 7.50453 6.69078 7.09945 7.09586C6.69438 7.50094 6.46681 8.05034 6.46681 8.6232C6.46681 9.19607 6.69438 9.74547 7.09945 10.1505L9.2557 12.3068ZM9.2557 33.6896L7.09945 35.8459C6.89888 36.0464 6.73978 36.2845 6.63123 36.5466C6.52268 36.8087 6.46681 37.0896 6.46681 37.3732C6.46681 37.6569 6.52268 37.9377 6.63123 38.1998C6.73978 38.4619 6.89888 38.7 7.09945 38.9005C7.50453 39.3056 8.05393 39.5332 8.6268 39.5332C8.91045 39.5332 9.19133 39.4773 9.45339 39.3688C9.71545 39.2602 9.95357 39.1011 10.1541 38.9005L12.3104 36.7443C12.7155 36.3392 12.943 35.7898 12.943 35.217C12.943 34.6441 12.7155 34.0947 12.3104 33.6896C11.9053 33.2845 11.3559 33.057 10.783 33.057C10.2102 33.057 9.66078 33.2845 9.2557 33.6896ZM35.2188 12.9375C35.502 12.9377 35.7825 12.8821 36.0443 12.7739C36.306 12.6657 36.5439 12.507 36.7443 12.3068L38.9005 10.1505C39.1011 9.94997 39.2602 9.71186 39.3688 9.4498C39.4773 9.18773 39.5332 8.90686 39.5332 8.6232C39.5332 8.33955 39.4773 8.05867 39.3688 7.79661C39.2602 7.53455 39.1011 7.29643 38.9005 7.09586C38.7 6.89529 38.4619 6.73618 38.1998 6.62763C37.9377 6.51908 37.6569 6.46321 37.3732 6.46321C37.0896 6.46321 36.8087 6.51908 36.5466 6.62763C36.2845 6.73618 36.0464 6.89529 35.8459 7.09586L33.6896 9.25211C33.3863 9.5537 33.1794 9.9387 33.0955 10.3581C33.0116 10.7776 33.0543 11.2125 33.2182 11.6076C33.3822 12.0027 33.6599 12.3401 34.0161 12.577C34.3724 12.8138 34.791 12.9393 35.2188 12.9375ZM36.7443 33.6932C36.3392 33.2881 35.7898 33.0606 35.217 33.0606C34.6441 33.0606 34.0947 33.2881 33.6896 33.6932C33.2845 34.0983 33.057 34.6477 33.057 35.2205C33.057 35.7934 33.2845 36.3428 33.6896 36.7479L35.8459 38.9041C36.2509 39.3092 36.8003 39.5368 37.3732 39.5368C37.9461 39.5368 38.4955 39.3092 38.9005 38.9041C39.3056 38.4991 39.5332 37.9497 39.5332 37.3768C39.5332 36.8039 39.3056 36.2545 38.9005 35.8495L36.7443 33.6932ZM7.90625 23C7.90625 22.4281 7.67907 21.8797 7.2747 21.4753C6.87032 21.0709 6.32187 20.8438 5.75 20.8438H2.875C2.30313 20.8438 1.75468 21.0709 1.3503 21.4753C0.945926 21.8797 0.71875 22.4281 0.71875 23C0.71875 23.5719 0.945926 24.1203 1.3503 24.5247C1.75468 24.9291 2.30313 25.1562 2.875 25.1562H5.75C6.32187 25.1562 6.87032 24.9291 7.2747 24.5247C7.67907 24.1203 7.90625 23.5719 7.90625 23ZM23 38.0938C22.4281 38.0937 21.8797 38.3209 21.4753 38.7253C21.0709 39.1297 20.8438 39.6781 20.8438 40.25V43.125C20.8438 43.6969 21.0709 44.2453 21.4753 44.6497C21.8797 45.0541 22.4281 45.2812 23 45.2812C23.5719 45.2812 24.1203 45.0541 24.5247 44.6497C24.9291 44.2453 25.1562 43.6969 25.1562 43.125V40.25C25.1562 39.6781 24.9291 39.1297 24.5247 38.7253C24.1203 38.3209 23.5719 38.0938 23 38.0938ZM43.125 20.8438H40.25C39.6781 20.8438 39.1297 21.0709 38.7253 21.4753C38.3209 21.8797 38.0938 22.4281 38.0938 23C38.0938 23.5719 38.3209 24.1203 38.7253 24.5247C39.1297 24.9291 39.6781 25.1562 40.25 25.1562H43.125C43.6969 25.1562 44.2453 24.9291 44.6497 24.5247C45.0541 24.1203 45.2812 23.5719 45.2812 23C45.2812 22.4281 45.0541 21.8797 44.6497 21.4753C44.2453 21.0709 43.6969 20.8438 43.125 20.8438Z" fill="white"/>
</g>
<defs>
<clipPath id="clip0_7_115">
<rect width="46" height="46" fill="white"/>
</clipPath>
</defs>
</svg>
