<svg width="65" height="65" viewBox="0 0 65 65" fill="none" xmlns="http://www.w3.org/2000/svg">
<path d="M50.9329 34.989C52.6114 34.6432 54.184 33.9042 55.5214 32.8326C56.8588 31.7609 57.9229 30.3873 58.6262 28.8245C59.3296 27.2617 59.6521 25.5544 59.5674 23.8427C59.4826 22.131 58.993 20.4639 58.1388 18.9782C57.2845 17.4926 56.0899 16.2308 54.6532 15.2965C53.2165 14.3622 51.5787 13.7821 49.8742 13.6038C48.1697 13.4256 46.4473 13.6542 44.8484 14.271C43.2494 14.8878 41.8196 15.8751 40.6764 17.1519C40.2052 17.6882 39.9647 18.3889 40.0074 19.1015C40.0501 19.8142 40.3725 20.4812 40.9044 20.9574C41.4363 21.4336 42.1347 21.6806 42.8478 21.6445C43.5608 21.6084 44.2307 21.2923 44.7119 20.7648C45.281 20.1252 45.9941 19.6303 46.7924 19.3209C47.5906 19.0115 48.451 18.8965 49.3025 18.9854C50.6863 19.1243 51.9636 19.7901 52.87 20.8449C53.7763 21.8997 54.2422 23.2627 54.1712 24.6516C54.1002 26.0405 53.4977 27.3489 52.4885 28.3057C51.4793 29.2626 50.1407 29.7947 48.75 29.7917H8.12499C7.4067 29.7917 6.71782 30.077 6.20991 30.5849C5.702 31.0928 5.41666 31.7817 5.41666 32.5C5.41666 33.2183 5.702 33.9072 6.20991 34.4151C6.71782 34.923 7.4067 35.2083 8.12499 35.2083H48.75C49.4975 35.2083 50.2287 35.1325 50.9329 34.989ZM13.5417 27.0833H28.4808C29.6082 27.0757 30.7158 26.7866 31.7032 26.2424C32.6906 25.6982 33.5264 24.9161 34.1349 23.967C34.7434 23.0178 35.1052 21.9318 35.1876 20.8074C35.27 19.683 35.0703 18.5558 34.6067 17.5282C34.143 16.5005 33.4301 15.6049 32.5326 14.9226C31.6351 14.2403 30.5814 13.7929 29.4672 13.621C28.3529 13.4491 27.2134 13.5582 26.152 13.9383C25.0906 14.3184 24.1409 14.9575 23.3892 15.7977C22.9101 16.3332 22.6633 17.0371 22.7032 17.7545C22.743 18.4719 23.0663 19.1441 23.6018 19.6232C24.1372 20.1023 24.8411 20.3491 25.5586 20.3092C26.276 20.2694 26.9482 19.9461 27.4273 19.4106C27.5778 19.2421 27.768 19.1139 27.9807 19.0377C28.1934 18.9615 28.4218 18.9397 28.645 18.9743C28.8683 19.009 29.0793 19.0989 29.2589 19.236C29.4385 19.3731 29.581 19.5529 29.6733 19.7591C29.7657 19.9653 29.8049 20.1913 29.7876 20.4166C29.7702 20.6418 29.6968 20.8592 29.5739 21.0488C29.4511 21.2384 29.2827 21.3943 29.0843 21.5022C28.8858 21.6101 28.6634 21.6667 28.4375 21.6667H13.5417C12.8234 21.6667 12.1345 21.952 11.6266 22.4599C11.1187 22.9678 10.8333 23.6567 10.8333 24.375C10.8333 25.0933 11.1187 25.7822 11.6266 26.2901C12.1345 26.798 12.8234 27.0833 13.5417 27.0833ZM44.6875 37.9167H21.6667C20.9484 37.9167 20.2595 38.202 19.7516 38.7099C19.2437 39.2178 18.9583 39.9067 18.9583 40.625C18.9583 41.3433 19.2437 42.0322 19.7516 42.5401C20.2595 43.048 20.9484 43.3333 21.6667 43.3333H44.6875C44.9134 43.3333 45.1358 43.3899 45.3342 43.4978C45.5327 43.6057 45.7011 43.7616 45.8239 43.9512C45.9468 44.1408 46.0202 44.3582 46.0376 44.5834C46.055 44.8087 46.0157 45.0347 45.9233 45.2409C45.831 45.4471 45.6886 45.6269 45.5089 45.764C45.3293 45.9011 45.1183 45.991 44.895 46.0257C44.6718 46.0603 44.4434 46.0385 44.2307 45.9623C44.018 45.8861 43.8278 45.7579 43.6773 45.5894C43.4411 45.3206 43.154 45.1013 42.8326 44.9441C42.5112 44.787 42.1619 44.695 41.8047 44.6736C41.4476 44.6522 41.0898 44.7018 40.7519 44.8195C40.414 44.9372 40.1028 45.1207 39.8363 45.3593C39.5697 45.598 39.3531 45.8871 39.1989 46.2099C39.0447 46.5328 38.956 46.883 38.9379 47.2403C38.9199 47.5976 38.9728 47.955 39.0936 48.2917C39.2144 48.6285 39.4008 48.938 39.6419 49.2023C40.3937 50.0425 41.3433 50.6816 42.4047 51.0617C43.4661 51.4418 44.6057 51.5509 45.7199 51.379C46.8341 51.2071 47.8878 50.7597 48.7853 50.0774C49.6828 49.3951 50.3957 48.4995 50.8594 47.4718C51.323 46.4442 51.5227 45.317 51.4403 44.1926C51.3579 43.0682 50.9961 41.9822 50.3876 41.033C49.7791 40.0839 48.9433 39.3018 47.9559 38.7576C46.9686 38.2134 45.8609 37.9243 44.7335 37.9167H44.6875Z" fill="white"/>
</svg>
