<svg width="200" height="200" viewBox="0 0 200 200" fill="none" xmlns="http://www.w3.org/2000/svg">
<g clip-path="url(#clip0_25_103)">
<path d="M9.29334 0.533336C8.06775 0.00549301 6.71197 -0.142407 5.4014 0.108772C4.09083 0.359951 2.8858 0.998648 1.94223 1.94223C0.998649 2.8858 0.359952 4.09083 0.108773 5.4014C-0.142406 6.71196 0.00549397 8.06775 0.533336 9.29334L80.5333 195.96C81.0659 197.203 81.9638 198.255 83.1079 198.975C84.2521 199.696 85.5883 200.052 86.9394 199.995C88.2904 199.939 89.5923 199.473 90.6724 198.659C91.7525 197.846 92.5596 196.723 92.9867 195.44L118.6 118.6L195.44 93C196.727 92.5755 197.854 91.7687 198.672 90.6872C199.489 89.6057 199.956 88.3008 200.013 86.9466C200.069 85.5923 199.712 84.253 198.988 83.1072C198.264 81.9614 197.207 81.0636 195.96 80.5333L9.29334 0.533336Z" fill="white"/>
</g>
<defs>
<clipPath id="clip0_25_103">
<rect width="200" height="200" fill="white"/>
</clipPath>
</defs>
</svg>
